<?xml version="1.0" encoding="UTF-8" standalone="no"?>
<svg
   xmlns:dc="http://purl.org/dc/elements/1.1/"
   xmlns:cc="http://creativecommons.org/ns#"
   xmlns:rdf="http://www.w3.org/1999/02/22-rdf-syntax-ns#"
   xmlns:svg="http://www.w3.org/2000/svg"
   xmlns="http://www.w3.org/2000/svg"
   xmlns:sodipodi="http://sodipodi.sourceforge.net/DTD/sodipodi-0.dtd"
   xmlns:inkscape="http://www.inkscape.org/namespaces/inkscape"
   inkscape:version="1.0 (4035a4fb49, 2020-05-01)"
   height="202.33527"
   width="804.68549"
   sodipodi:docname="logo2.svg"
   id="svg78"
   xml:space="preserve"
   enable-background="new 0 0 679 459"
   viewBox="0 0 804.68549 202.33527"
   y="0px"
   x="0px"
   version="1.1"><metadata
   id="metadata84"><rdf:RDF><cc:Work
       rdf:about=""><dc:format>image/svg+xml</dc:format><dc:type
         rdf:resource="http://purl.org/dc/dcmitype/StillImage" /><dc:title></dc:title></cc:Work></rdf:RDF></metadata><defs
   id="defs82" /><sodipodi:namedview
   inkscape:current-layer="svg78"
   inkscape:window-maximized="0"
   inkscape:window-y="0"
   inkscape:window-x="0"
   inkscape:cy="128.39916"
   inkscape:cx="194.2512"
   inkscape:zoom="0.95267934"
   fit-margin-bottom="0"
   fit-margin-right="0"
   fit-margin-left="0"
   fit-margin-top="0"
   showgrid="false"
   id="namedview80"
   inkscape:window-height="768"
   inkscape:window-width="1366"
   inkscape:pageshadow="2"
   inkscape:pageopacity="0"
   guidetolerance="10"
   gridtolerance="10"
   objecttolerance="10"
   borderopacity="1"
   bordercolor="#666666"
   pagecolor="#ffffff" />
<g
   transform="translate(-11.061592,-10.512384)"
   id="Layer_8">
</g>
<g
   transform="translate(-231.20575,-53.296365)"
   id="Layer_1">
	
		<ellipse
   id="ellipse3"
   ry="15.915"
   rx="13.957"
   cy="111.039"
   cx="363.18201"
   fill="#ff8d74"
   transform="matrix(0.1868,-0.9824,0.9824,0.1868,186.2674,447.0923)" />
	
		<ellipse
   id="ellipse5"
   ry="15.915"
   rx="13.957"
   cy="199.407"
   cx="314.98999"
   fill="#afafaf"
   transform="matrix(0.1868,-0.9824,0.9824,0.1868,60.2582,471.6084)" />
	
		<ellipse
   id="ellipse7"
   ry="15.915"
   rx="13.957"
   cy="131.735"
   cx="287.948"
   fill="#afafaf"
   transform="matrix(0.1868,-0.9824,0.9824,0.1868,104.7499,390.0114)" />
	
		<ellipse
   id="ellipse9"
   ry="15.915"
   rx="13.957"
   cy="178.711"
   cx="390.224"
   fill="#afafaf"
   transform="matrix(0.1868,-0.9824,0.9824,0.1868,141.7752,528.6899)" />
</g>
<g
   transform="translate(-231.20575,-53.296365)"
   id="Layer_2">
	<path
   id="path12"
   d="m 429.845,102.647 c -12.412,-4.886 -26.951,-1.409 -34.194,8.202 -1.686,2.237 -2.876,4.614 -3.615,7.053 -1.806,5.955 -6.287,10.891 -12.704,13.215 l -6.943,2.514 c -6.607,2.393 -14.143,1.759 -20.704,-1.283 -0.033,-0.015 -0.065,-0.03 -0.098,-0.045 -0.033,-0.015 -0.066,-0.03 -0.099,-0.045 -6.586,-2.997 -11.655,-8.153 -13.529,-14.441 l -1.969,-6.607 c -1.82,-6.107 -0.2,-12.357 3.912,-17.253 1.684,-2.005 3.044,-4.304 3.984,-6.883 4.041,-11.082 -1.641,-23.846 -13.344,-30.035 -15.383,-8.135 -34.699,-2.514 -40.532,12.074 -3.925,9.816 -0.136,21.306 9.273,28.228 1.898,1.396 3.887,2.532 5.929,3.43 6.683,2.938 11.456,8.548 13.344,14.886 l 1.787,5.998 c 1.82,6.107 0.2,12.357 -3.912,17.253 -1.347,1.604 -2.487,3.396 -3.371,5.369 -5.17,11.543 0.654,25.481 13.314,31.852 14.369,7.23 31.935,2.659 38.774,-9.881 0.757,-1.389 1.347,-2.815 1.778,-4.262 1.856,-6.229 7.116,-11.102 13.819,-13.528 l 5.151,-1.865 c 6.663,-2.413 14.42,-2.269 20.991,0.879 2.008,0.962 4.192,1.742 6.548,2.299 11.679,2.761 23.973,-1.346 30.179,-10.116 9.222,-13.032 2.546,-30.586 -13.769,-37.008 z"
   fill="#ff8d74" />
</g>
<g
   transform="translate(-231.20575,-53.296365)"
   id="Layer_3">
	<path
   id="path15"
   d="m 373.787,208.159 c -6.683,-2.938 -11.456,-8.548 -13.344,-14.886 l -1.787,-5.998 c -0.497,-1.669 -0.715,-3.346 -0.718,-5.006 -2.198,1.071 -4.543,1.952 -7.036,2.589 -4.027,1.028 -8.17,1.37 -12.283,1.107 1.04,1.608 1.88,3.322 2.423,5.146 l 1.969,6.607 c 1.82,6.107 0.2,12.357 -3.912,17.253 -1.684,2.005 -3.044,4.304 -3.984,6.883 -4.041,11.082 1.641,23.846 13.344,30.035 15.383,8.135 34.699,2.514 40.532,-12.074 3.925,-9.816 0.136,-21.307 -9.273,-28.228 -1.899,-1.395 -3.889,-2.53 -5.931,-3.428 z"
   fill="#afafaf" />
</g>
<g
   transform="translate(-231.20575,-53.296365)"
   id="Layer_4">
	<path
   id="path18"
   d="m 306.611,175.297 c 1.937,-0.701 3.958,-1.113 6.007,-1.31 -4.473,-4.81 -7.347,-10.635 -8.34,-16.668 -1.816,1.28 -3.832,2.359 -6.025,3.153 l -5.151,1.865 c -6.663,2.413 -14.42,2.269 -20.991,-0.879 -2.008,-0.962 -4.192,-1.742 -6.548,-2.299 -11.679,-2.761 -23.973,1.346 -30.179,10.116 -9.22,13.029 -2.544,30.583 13.771,37.005 12.412,4.886 26.951,1.409 34.194,-8.201 1.686,-2.237 2.876,-4.614 3.616,-7.053 1.806,-5.955 6.287,-10.891 12.704,-13.215 z"
   fill="#afafaf" />
</g>
<g
   transform="translate(178.33747,-199.51922)"
   id="Layer_5">
	<path
   id="path21"
   d="M 102.561,294.532 H 81.479 v 54.211 H 73.734 V 294.532 H 52.652 v -6.886 h 49.909 z"
   fill="#afafaf" />
	<path
   id="path23"
   d="m 153.676,341.859 v 6.884 h -41.477 v -61.097 h 40.702 v 6.886 h -32.957 v 19.79 h 28.655 v 6.454 h -28.655 v 21.083 z"
   fill="#afafaf" />
	<path
   id="path25"
   d="m 183.708,287.646 h 6.539 l 24.955,61.097 h -8.261 l -7.229,-17.899 h -25.643 l -7.142,17.899 h -8.261 z m 14.283,37.175 -11.014,-28.225 -11.359,28.225 z"
   fill="#afafaf" />
	<path
   id="path27"
   d="M 277.071,348.743 V 301.5 l -20.307,36.227 h -4.389 L 231.98,301.5 v 47.243 h -7.745 v -61.097 h 8.175 l 22.115,39.669 22.201,-39.669 h 8.089 v 61.097 z"
   fill="#afafaf" />
</g>
<g
   transform="translate(178.33747,-199.51922)"
   id="Layer_6">
	<path
   id="path30"
   d="m 298.841,348.743 v -61.097 h 41.477 v 12.392 h -27.365 v 13.165 h 22.546 v 11.445 h -22.546 v 24.095 z"
   fill="#ff8d74" />
	<path
   id="path32"
   d="m 348.664,348.743 v -61.097 h 14.112 v 48.707 h 29.602 v 12.39 z"
   fill="#ff8d74" />
	<path
   id="path34"
   d="m 422.323,336.695 c 2.41,0 4.445,-0.501 6.109,-1.505 1.663,-1.004 3.011,-2.338 4.045,-4.001 1.032,-1.663 1.764,-3.572 2.194,-5.723 0.431,-2.151 0.645,-4.344 0.645,-6.582 v -31.237 h 14.112 v 31.237 c 0,4.247 -0.53,8.205 -1.592,11.876 -1.062,3.672 -2.697,6.884 -4.905,9.636 -2.209,2.754 -5.021,4.921 -8.432,6.498 -3.415,1.579 -7.474,2.366 -12.177,2.366 -4.877,0 -9.035,-0.831 -12.477,-2.496 -3.442,-1.661 -6.239,-3.884 -8.39,-6.669 -2.151,-2.78 -3.73,-6.008 -4.733,-9.679 -1.004,-3.672 -1.505,-7.515 -1.505,-11.531 v -31.237 h 14.112 v 31.237 c 0,2.353 0.228,4.591 0.688,6.712 0.459,2.123 1.205,4.017 2.238,5.68 1.032,1.663 2.366,2.982 4.001,3.958 1.636,0.975 3.658,1.46 6.067,1.46 z"
   fill="#ff8d74" />
	<path
   id="path36"
   d="m 504.157,336.353 v 12.39 h -42.94 v -61.097 h 42.165 v 12.392 H 475.33 v 11.874 h 24.094 v 11.445 H 475.33 v 12.995 h 28.827 z"
   fill="#ff8d74" />
	<path
   id="path38"
   d="m 527.735,313.806 v 34.937 h -14.112 v -61.097 h 11.014 l 28.483,35.885 v -35.885 h 14.113 v 61.097 h -11.359 z"
   fill="#ff8d74" />
	<path
   id="path40"
   d="m 626.348,300.038 h -18.587 v 48.705 h -14.112 v -48.705 h -18.673 v -12.392 h 51.372 z"
   fill="#ff8d74" />
</g>

</svg>
