<?xml version="1.0" encoding="utf-8"?>
<!-- Generator: Adobe Illustrator 24.1.3, SVG Export Plug-In . SVG Version: 6.00 Build 0)  -->
<svg version="1.1" xmlns="http://www.w3.org/2000/svg" xmlns:xlink="http://www.w3.org/1999/xlink" x="0px" y="0px"
	 viewBox="0 0 679 459" enable-background="new 0 0 679 459" xml:space="preserve">
<g id="Layer_8">
</g>
<g id="Layer_1">
	
		<ellipse transform="matrix(0.1868 -0.9824 0.9824 0.1868 186.2674 447.0923)" fill="#FF8D74" cx="363.182" cy="111.039" rx="13.957" ry="15.915"/>
	
		<ellipse transform="matrix(0.1868 -0.9824 0.9824 0.1868 60.2582 471.6084)" fill="#AFAFAF" cx="314.99" cy="199.407" rx="13.957" ry="15.915"/>
	
		<ellipse transform="matrix(0.1868 -0.9824 0.9824 0.1868 104.7499 390.0114)" fill="#AFAFAF" cx="287.948" cy="131.735" rx="13.957" ry="15.915"/>
	
		<ellipse transform="matrix(0.1868 -0.9824 0.9824 0.1868 141.7752 528.6899)" fill="#AFAFAF" cx="390.224" cy="178.711" rx="13.957" ry="15.915"/>
</g>
<g id="Layer_2">
	<path fill="#FF8D74" d="M429.845,102.647c-12.412-4.886-26.951-1.409-34.194,8.202c-1.686,2.237-2.876,4.614-3.615,7.053
		c-1.806,5.955-6.287,10.891-12.704,13.215l-6.943,2.514c-6.607,2.393-14.143,1.759-20.704-1.283
		c-0.033-0.015-0.065-0.03-0.098-0.045s-0.066-0.03-0.099-0.045c-6.586-2.997-11.655-8.153-13.529-14.441l-1.969-6.607
		c-1.82-6.107-0.2-12.357,3.912-17.253c1.684-2.005,3.044-4.304,3.984-6.883c4.041-11.082-1.641-23.846-13.344-30.035
		c-15.383-8.135-34.699-2.514-40.532,12.074c-3.925,9.816-0.136,21.306,9.273,28.228c1.898,1.396,3.887,2.532,5.929,3.43
		c6.683,2.938,11.456,8.548,13.344,14.886l1.787,5.998c1.82,6.107,0.2,12.357-3.912,17.253c-1.347,1.604-2.487,3.396-3.371,5.369
		c-5.17,11.543,0.654,25.481,13.314,31.852c14.369,7.23,31.935,2.659,38.774-9.881c0.757-1.389,1.347-2.815,1.778-4.262
		c1.856-6.229,7.116-11.102,13.819-13.528l5.151-1.865c6.663-2.413,14.42-2.269,20.991,0.879c2.008,0.962,4.192,1.742,6.548,2.299
		c11.679,2.761,23.973-1.346,30.179-10.116C452.836,126.623,446.16,109.069,429.845,102.647z"/>
</g>
<g id="Layer_3">
	<path fill="#AFAFAF" d="M373.787,208.159c-6.683-2.938-11.456-8.548-13.344-14.886l-1.787-5.998
		c-0.497-1.669-0.715-3.346-0.718-5.006c-2.198,1.071-4.543,1.952-7.036,2.589c-4.027,1.028-8.17,1.37-12.283,1.107
		c1.04,1.608,1.88,3.322,2.423,5.146l1.969,6.607c1.82,6.107,0.2,12.357-3.912,17.253c-1.684,2.005-3.044,4.304-3.984,6.883
		c-4.041,11.082,1.641,23.846,13.344,30.035c15.383,8.135,34.699,2.514,40.532-12.074c3.925-9.816,0.136-21.307-9.273-28.228
		C377.819,210.192,375.829,209.057,373.787,208.159z"/>
</g>
<g id="Layer_4">
	<path fill="#AFAFAF" d="M306.611,175.297c1.937-0.701,3.958-1.113,6.007-1.31c-4.473-4.81-7.347-10.635-8.34-16.668
		c-1.816,1.28-3.832,2.359-6.025,3.153l-5.151,1.865c-6.663,2.413-14.42,2.269-20.991-0.879c-2.008-0.962-4.192-1.742-6.548-2.299
		c-11.679-2.761-23.973,1.346-30.179,10.116c-9.22,13.029-2.544,30.583,13.771,37.005c12.412,4.886,26.951,1.409,34.194-8.201
		c1.686-2.237,2.876-4.614,3.616-7.053c1.806-5.955,6.287-10.891,12.704-13.215L306.611,175.297z"/>
</g>
<g id="Layer_5">
	<path fill="#AFAFAF" d="M102.561,294.532H81.479v54.211h-7.745v-54.211H52.652v-6.886h49.909V294.532z"/>
	<path fill="#AFAFAF" d="M153.676,341.859v6.884h-41.477v-61.097h40.702v6.886h-32.957v19.79h28.655v6.454h-28.655v21.083H153.676z"
		/>
	<path fill="#AFAFAF" d="M183.708,287.646h6.539l24.955,61.097h-8.261l-7.229-17.899h-25.643l-7.142,17.899h-8.261L183.708,287.646z
		 M197.991,324.821l-11.014-28.225l-11.359,28.225H197.991z"/>
	<path fill="#AFAFAF" d="M277.071,348.743V301.5l-20.307,36.227h-4.389L231.98,301.5v47.243h-7.745v-61.097h8.175l22.115,39.669
		l22.201-39.669h8.089v61.097H277.071z"/>
</g>
<g id="Layer_6">
	<path fill="#FF8D74" d="M298.841,348.743v-61.097h41.477v12.392h-27.365v13.165h22.546v11.445h-22.546v24.095H298.841z"/>
	<path fill="#FF8D74" d="M348.664,348.743v-61.097h14.112v48.707h29.602v12.39H348.664z"/>
	<path fill="#FF8D74" d="M422.323,336.695c2.41,0,4.445-0.501,6.109-1.505c1.663-1.004,3.011-2.338,4.045-4.001
		c1.032-1.663,1.764-3.572,2.194-5.723c0.431-2.151,0.645-4.344,0.645-6.582v-31.237h14.112v31.237c0,4.247-0.53,8.205-1.592,11.876
		c-1.062,3.672-2.697,6.884-4.905,9.636c-2.209,2.754-5.021,4.921-8.432,6.498c-3.415,1.579-7.474,2.366-12.177,2.366
		c-4.877,0-9.035-0.831-12.477-2.496c-3.442-1.661-6.239-3.884-8.39-6.669c-2.151-2.78-3.73-6.008-4.733-9.679
		c-1.004-3.672-1.505-7.515-1.505-11.531v-31.237h14.112v31.237c0,2.353,0.228,4.591,0.688,6.712
		c0.459,2.123,1.205,4.017,2.238,5.68c1.032,1.663,2.366,2.982,4.001,3.958C417.892,336.21,419.914,336.695,422.323,336.695z"/>
	<path fill="#FF8D74" d="M504.157,336.353v12.39h-42.94v-61.097h42.165v12.392H475.33v11.874h24.094v11.445H475.33v12.995H504.157z"
		/>
	<path fill="#FF8D74" d="M527.735,313.806v34.937h-14.112v-61.097h11.014l28.483,35.885v-35.885h14.113v61.097h-11.359
		L527.735,313.806z"/>
	<path fill="#FF8D74" d="M626.348,300.038h-18.587v48.705h-14.112v-48.705h-18.673v-12.392h51.372V300.038z"/>
</g>
<g id="Layer_7">
	<g>
		<path fill="#FF8D74" d="M70.206,378.724H59.911v-1.955h22.789v1.955H72.404v26.493h-2.197V378.724z"/>
		<path fill="#FF8D74" d="M113.465,405.217v-12.941H95.314v12.941h-2.197v-28.487h2.197v13.551h18.151v-13.551h2.197v28.487H113.465
			z"/>
		<path fill="#FF8D74" d="M130.31,389.873h16.686v1.995H130.31v11.233H148.3v2.116h-20.145v-28.487h19.656v2.076H130.31V389.873z"/>
		<path fill="#FF8D74" d="M195.26,382.223c-2.076-3.336-5.412-3.824-8.628-3.866c-3.336,0-8.626,1.222-8.626,5.779
			c0,3.622,3.906,4.476,8.708,5.372c5.495,1.059,11.193,2.034,11.193,8.179c-0.042,6.431-6.512,7.977-11.274,7.977
			c-4.434,0-9.481-1.83-11.68-6.185l1.955-0.977c1.75,3.459,6.226,5.169,9.725,5.169c3.501,0,9.075-0.977,9.075-6.024
			c0.042-4.273-4.679-5.209-9.359-6.105c-5.209-1.017-10.54-2.074-10.54-7.325c-0.123-6.024,6.145-7.895,10.824-7.895
			c4.071,0,7.611,0.652,10.418,4.844L195.26,382.223z"/>
		<path fill="#FF8D74" d="M232.292,401.269c-2.849,2.849-6.634,4.273-10.378,4.273c-9.604,0-14.61-6.715-14.65-14.407
			c-0.081-7.609,4.883-14.731,14.65-14.731c3.745,0,7.53,1.424,10.378,4.273l-1.506,1.301c-2.442-2.442-5.656-3.622-8.873-3.622
			c-8.302,0-12.574,5.861-12.534,12.697c0.081,6.675,4.313,12.454,12.534,12.454c3.216,0,6.471-1.222,8.914-3.622L232.292,401.269z"
			/>
		<path fill="#FF8D74" d="M243.726,405.217v-28.487h2.157v28.487H243.726z"/>
		<path fill="#FF8D74" d="M260.533,389.873h16.684v1.995h-16.684v11.233h17.988v2.116h-20.145v-28.487h19.656v2.076h-17.499V389.873
			z"/>
		<path fill="#FF8D74" d="M291.421,376.729l19.168,23.562v-23.562h2.156v28.487h-0.854l-19.208-23.523v23.523h-2.199v-28.487
			H291.421z"/>
		<path fill="#FF8D74" d="M348.84,401.269c-2.849,2.849-6.634,4.273-10.378,4.273c-9.604,0-14.608-6.715-14.65-14.407
			c-0.081-7.609,4.883-14.731,14.65-14.731c3.745,0,7.53,1.424,10.378,4.273l-1.506,1.301c-2.442-2.442-5.656-3.622-8.873-3.622
			c-8.301,0-12.574,5.861-12.534,12.697c0.081,6.675,4.315,12.454,12.534,12.454c3.216,0,6.471-1.222,8.914-3.622L348.84,401.269z"
			/>
		<path fill="#FF8D74" d="M362.348,389.873h16.684v1.995h-16.684v11.233h17.988v2.116h-20.145v-28.487h19.656v2.076h-17.499V389.873
			z"/>
		<path fill="#FF8D74" d="M436.331,391.014c-0.04,7.488-4.802,14.692-14.366,14.692c-9.562,0-14.366-7.244-14.366-14.773
			c0-7.651,4.762-14.65,14.366-14.65C431.571,376.282,436.373,383.321,436.331,391.014z M409.757,390.972
			c0.042,6.431,4.11,12.699,12.208,12.699c8.139,0,12.25-6.268,12.25-12.699c0-6.592-4.069-12.655-12.25-12.655
			C413.786,378.317,409.717,384.259,409.757,390.972z"/>
		<path fill="#FF8D74" d="M449.962,390.281h16.4v2.076h-16.4v12.9h-2.197v-28.527h19.168v2.197h-16.97V390.281z"/>
		<path fill="#FF8D74" d="M503.516,378.724h-10.295v-1.955h22.789v1.955h-10.295v26.493h-2.199V378.724z"/>
		<path fill="#FF8D74" d="M528.543,389.873h16.684v1.995h-16.684v11.233h17.988v2.116h-20.145v-28.487h19.656v2.076h-17.499V389.873
			z"/>
		<path fill="#FF8D74" d="M580.267,405.217l-3.133-6.999h-17.012l-3.093,6.999h-2.36l12.779-28.487h2.402l12.778,28.487H580.267z
			 M576.277,396.181l-7.651-17.336l-7.651,17.336H576.277z"/>
		<path fill="#FF8D74" d="M616.931,379.904l-10.907,16.684h-0.733l-10.987-16.684v25.313h-2.199v-28.487c1.059,0,1.548,0,2.605,0
			l10.907,16.605l10.786-16.605h2.686v28.487h-2.157V379.904z"/>
	</g>
</g>
</svg>
