<?xml version="1.0" encoding="UTF-8" standalone="no"?>
<svg
   xmlns:dc="http://purl.org/dc/elements/1.1/"
   xmlns:cc="http://creativecommons.org/ns#"
   xmlns:rdf="http://www.w3.org/1999/02/22-rdf-syntax-ns#"
   xmlns:svg="http://www.w3.org/2000/svg"
   xmlns="http://www.w3.org/2000/svg"
   xmlns:sodipodi="http://sodipodi.sourceforge.net/DTD/sodipodi-0.dtd"
   xmlns:inkscape="http://www.inkscape.org/namespaces/inkscape"
   height="202.33527"
   width="811.63733"
   version="1.1"
   x="0px"
   y="0px"
   viewBox="0 0 811.63732 202.33527"
   enable-background="new 0 0 679 459"
   xml:space="preserve"
   id="svg83"
   sodipodi:docname="logo-white.svg"
   inkscape:version="1.0 (4035a4fb49, 2020-05-01)"><metadata
   id="metadata89"><rdf:RDF><cc:Work
       rdf:about=""><dc:format>image/svg+xml</dc:format><dc:type
         rdf:resource="http://purl.org/dc/dcmitype/StillImage" /><dc:title></dc:title></cc:Work></rdf:RDF></metadata><defs
   id="defs87" /><sodipodi:namedview
   fit-margin-bottom="0"
   fit-margin-right="0"
   fit-margin-left="0"
   fit-margin-top="0"
   inkscape:document-rotation="0"
   pagecolor="#ffffff"
   bordercolor="#666666"
   borderopacity="1"
   objecttolerance="10"
   gridtolerance="10"
   guidetolerance="10"
   inkscape:pageopacity="0"
   inkscape:pageshadow="2"
   inkscape:window-width="1360"
   inkscape:window-height="721"
   id="namedview85"
   showgrid="false"
   inkscape:zoom="1.2804331"
   inkscape:cx="444.31924"
   inkscape:cy="201.99715"
   inkscape:window-x="0"
   inkscape:window-y="44"
   inkscape:window-maximized="0"
   inkscape:current-layer="svg83" />

<g
   style="fill:#ffffff"
   transform="translate(-231.20575,-53.296365)"
   id="Layer_1">
	
		<ellipse
   style="fill:#ffffff"
   transform="matrix(0.1868,-0.9824,0.9824,0.1868,186.2674,447.0923)"
   fill="#ffffff"
   cx="363.18201"
   cy="111.039"
   rx="13.957"
   ry="15.915"
   id="ellipse10" />
	
		<ellipse
   style="fill:#ffffff"
   transform="matrix(0.1868,-0.9824,0.9824,0.1868,60.2582,471.6084)"
   fill="#ffffff"
   cx="314.98999"
   cy="199.407"
   rx="13.957"
   ry="15.915"
   id="ellipse12" />
	
		<ellipse
   style="fill:#ffffff"
   transform="matrix(0.1868,-0.9824,0.9824,0.1868,104.7499,390.0114)"
   fill="#ffffff"
   cx="287.948"
   cy="131.735"
   rx="13.957"
   ry="15.915"
   id="ellipse14" />
	
		<ellipse
   style="fill:#ffffff"
   transform="matrix(0.1868,-0.9824,0.9824,0.1868,141.7752,528.6899)"
   fill="#ffffff"
   cx="390.224"
   cy="178.711"
   rx="13.957"
   ry="15.915"
   id="ellipse16" />
</g>
<g
   style="fill:#ffffff"
   transform="translate(-231.20575,-53.296365)"
   id="Layer_2">
	<path
   style="fill:#ffffff"
   fill="#ffffff"
   d="m 429.845,102.647 c -12.412,-4.886 -26.951,-1.409 -34.194,8.202 -1.686,2.237 -2.876,4.614 -3.615,7.053 -1.806,5.955 -6.287,10.891 -12.704,13.215 l -6.943,2.514 c -6.607,2.393 -14.143,1.759 -20.704,-1.283 -0.033,-0.015 -0.065,-0.03 -0.098,-0.045 -0.033,-0.015 -0.066,-0.03 -0.099,-0.045 -6.586,-2.997 -11.655,-8.153 -13.529,-14.441 l -1.969,-6.607 c -1.82,-6.107 -0.2,-12.357 3.912,-17.253 1.684,-2.005 3.044,-4.304 3.984,-6.883 4.041,-11.082 -1.641,-23.846 -13.344,-30.035 -15.383,-8.135 -34.699,-2.514 -40.532,12.074 -3.925,9.816 -0.136,21.306 9.273,28.228 1.898,1.396 3.887,2.532 5.929,3.43 6.683,2.938 11.456,8.548 13.344,14.886 l 1.787,5.998 c 1.82,6.107 0.2,12.357 -3.912,17.253 -1.347,1.604 -2.487,3.396 -3.371,5.369 -5.17,11.543 0.654,25.481 13.314,31.852 14.369,7.23 31.935,2.659 38.774,-9.881 0.757,-1.389 1.347,-2.815 1.778,-4.262 1.856,-6.229 7.116,-11.102 13.819,-13.528 l 5.151,-1.865 c 6.663,-2.413 14.42,-2.269 20.991,0.879 2.008,0.962 4.192,1.742 6.548,2.299 11.679,2.761 23.973,-1.346 30.179,-10.116 9.222,-13.032 2.546,-30.586 -13.769,-37.008 z"
   id="path19" />
</g>
<g
   style="fill:#ffffff"
   transform="translate(-231.20575,-53.296365)"
   id="Layer_3">
	<path
   style="fill:#ffffff"
   fill="#ffffff"
   d="m 373.787,208.159 c -6.683,-2.938 -11.456,-8.548 -13.344,-14.886 l -1.787,-5.998 c -0.497,-1.669 -0.715,-3.346 -0.718,-5.006 -2.198,1.071 -4.543,1.952 -7.036,2.589 -4.027,1.028 -8.17,1.37 -12.283,1.107 1.04,1.608 1.88,3.322 2.423,5.146 l 1.969,6.607 c 1.82,6.107 0.2,12.357 -3.912,17.253 -1.684,2.005 -3.044,4.304 -3.984,6.883 -4.041,11.082 1.641,23.846 13.344,30.035 15.383,8.135 34.699,2.514 40.532,-12.074 3.925,-9.816 0.136,-21.307 -9.273,-28.228 -1.899,-1.395 -3.889,-2.53 -5.931,-3.428 z"
   id="path22" />
</g>
<g
   style="fill:#ffffff"
   transform="translate(-231.20575,-53.296365)"
   id="Layer_4">
	<path
   style="fill:#ffffff"
   fill="#ffffff"
   d="m 306.611,175.297 c 1.937,-0.701 3.958,-1.113 6.007,-1.31 -4.473,-4.81 -7.347,-10.635 -8.34,-16.668 -1.816,1.28 -3.832,2.359 -6.025,3.153 l -5.151,1.865 c -6.663,2.413 -14.42,2.269 -20.991,-0.879 -2.008,-0.962 -4.192,-1.742 -6.548,-2.299 -11.679,-2.761 -23.973,1.346 -30.179,10.116 -9.22,13.029 -2.544,30.583 13.771,37.005 12.412,4.886 26.951,1.409 34.194,-8.201 1.686,-2.237 2.876,-4.614 3.616,-7.053 1.806,-5.955 6.287,-10.891 12.704,-13.215 z"
   id="path25" />
</g>
<g
   style="fill:#ffffff"
   transform="translate(185.28932,-229.52158)"
   id="Layer_5">
	<path
   style="fill:#ffffff"
   fill="#ffffff"
   d="M 102.561,294.532 H 81.479 v 54.211 H 73.734 V 294.532 H 52.652 v -6.886 h 49.909 z"
   id="path28" />
	<path
   style="fill:#ffffff"
   fill="#ffffff"
   d="m 153.676,341.859 v 6.884 h -41.477 v -61.097 h 40.702 v 6.886 h -32.957 v 19.79 h 28.655 v 6.454 h -28.655 v 21.083 z"
   id="path30" />
	<path
   style="fill:#ffffff"
   fill="#ffffff"
   d="m 183.708,287.646 h 6.539 l 24.955,61.097 h -8.261 l -7.229,-17.899 h -25.643 l -7.142,17.899 h -8.261 z m 14.283,37.175 -11.014,-28.225 -11.359,28.225 z"
   id="path32" />
	<path
   style="fill:#ffffff"
   fill="#ffffff"
   d="M 277.071,348.743 V 301.5 l -20.307,36.227 h -4.389 L 231.98,301.5 v 47.243 h -7.745 v -61.097 h 8.175 l 22.115,39.669 22.201,-39.669 h 8.089 v 61.097 z"
   id="path34" />
</g>
<g
   style="fill:#ffffff"
   transform="translate(185.28932,-229.52158)"
   id="Layer_6">
	<path
   style="fill:#ffffff"
   fill="#ffffff"
   d="m 298.841,348.743 v -61.097 h 41.477 v 12.392 h -27.365 v 13.165 h 22.546 v 11.445 h -22.546 v 24.095 z"
   id="path37" />
	<path
   style="fill:#ffffff"
   fill="#ffffff"
   d="m 348.664,348.743 v -61.097 h 14.112 v 48.707 h 29.602 v 12.39 z"
   id="path39" />
	<path
   style="fill:#ffffff"
   fill="#ffffff"
   d="m 422.323,336.695 c 2.41,0 4.445,-0.501 6.109,-1.505 1.663,-1.004 3.011,-2.338 4.045,-4.001 1.032,-1.663 1.764,-3.572 2.194,-5.723 0.431,-2.151 0.645,-4.344 0.645,-6.582 v -31.237 h 14.112 v 31.237 c 0,4.247 -0.53,8.205 -1.592,11.876 -1.062,3.672 -2.697,6.884 -4.905,9.636 -2.209,2.754 -5.021,4.921 -8.432,6.498 -3.415,1.579 -7.474,2.366 -12.177,2.366 -4.877,0 -9.035,-0.831 -12.477,-2.496 -3.442,-1.661 -6.239,-3.884 -8.39,-6.669 -2.151,-2.78 -3.73,-6.008 -4.733,-9.679 -1.004,-3.672 -1.505,-7.515 -1.505,-11.531 v -31.237 h 14.112 v 31.237 c 0,2.353 0.228,4.591 0.688,6.712 0.459,2.123 1.205,4.017 2.238,5.68 1.032,1.663 2.366,2.982 4.001,3.958 1.636,0.975 3.658,1.46 6.067,1.46 z"
   id="path41" />
	<path
   style="fill:#ffffff"
   fill="#ffffff"
   d="m 504.157,336.353 v 12.39 h -42.94 v -61.097 h 42.165 v 12.392 H 475.33 v 11.874 h 24.094 v 11.445 H 475.33 v 12.995 h 28.827 z"
   id="path43" />
	<path
   style="fill:#ffffff"
   fill="#ffffff"
   d="m 527.735,313.806 v 34.937 h -14.112 v -61.097 h 11.014 l 28.483,35.885 v -35.885 h 14.113 v 61.097 h -11.359 z"
   id="path45" />
	<path
   style="fill:#ffffff"
   fill="#ffffff"
   d="m 626.348,300.038 h -18.587 v 48.705 h -14.112 v -48.705 h -18.673 v -12.392 h 51.372 z"
   id="path47" />
</g>
<g
   style="fill:#ffffff"
   transform="translate(185.28932,-229.52158)"
   id="Layer_7">
	<path
   style="fill:#ffffff"
   fill="#ffffff"
   d="M 70.206,378.724 H 59.911 v -1.955 H 82.7 v 1.955 H 72.404 v 26.493 h -2.197 v -26.493 z"
   id="path50" />
	<path
   style="fill:#ffffff"
   fill="#ffffff"
   d="M 113.465,405.217 V 392.276 H 95.314 v 12.941 H 93.117 V 376.73 h 2.197 v 13.551 h 18.151 V 376.73 h 2.197 v 28.487 z"
   id="path52" />
	<path
   style="fill:#ffffff"
   fill="#ffffff"
   d="m 130.31,389.873 h 16.686 v 1.995 H 130.31 v 11.233 h 17.99 v 2.116 H 128.155 V 376.73 h 19.656 v 2.076 H 130.31 Z"
   id="path54" />
	<path
   style="fill:#ffffff"
   fill="#ffffff"
   d="m 195.26,382.223 c -2.076,-3.336 -5.412,-3.824 -8.628,-3.866 -3.336,0 -8.626,1.222 -8.626,5.779 0,3.622 3.906,4.476 8.708,5.372 5.495,1.059 11.193,2.034 11.193,8.179 -0.042,6.431 -6.512,7.977 -11.274,7.977 -4.434,0 -9.481,-1.83 -11.68,-6.185 l 1.955,-0.977 c 1.75,3.459 6.226,5.169 9.725,5.169 3.501,0 9.075,-0.977 9.075,-6.024 0.042,-4.273 -4.679,-5.209 -9.359,-6.105 -5.209,-1.017 -10.54,-2.074 -10.54,-7.325 -0.123,-6.024 6.145,-7.895 10.824,-7.895 4.071,0 7.611,0.652 10.418,4.844 z"
   id="path56" />
	<path
   style="fill:#ffffff"
   fill="#ffffff"
   d="m 232.292,401.269 c -2.849,2.849 -6.634,4.273 -10.378,4.273 -9.604,0 -14.61,-6.715 -14.65,-14.407 -0.081,-7.609 4.883,-14.731 14.65,-14.731 3.745,0 7.53,1.424 10.378,4.273 l -1.506,1.301 c -2.442,-2.442 -5.656,-3.622 -8.873,-3.622 -8.302,0 -12.574,5.861 -12.534,12.697 0.081,6.675 4.313,12.454 12.534,12.454 3.216,0 6.471,-1.222 8.914,-3.622 z"
   id="path58" />
	<path
   style="fill:#ffffff"
   fill="#ffffff"
   d="M 243.726,405.217 V 376.73 h 2.157 v 28.487 z"
   id="path60" />
	<path
   style="fill:#ffffff"
   fill="#ffffff"
   d="m 260.533,389.873 h 16.684 v 1.995 h -16.684 v 11.233 h 17.988 v 2.116 H 258.376 V 376.73 h 19.656 v 2.076 h -17.499 z"
   id="path62" />
	<path
   style="fill:#ffffff"
   fill="#ffffff"
   d="m 291.421,376.729 19.168,23.562 v -23.562 h 2.156 v 28.487 h -0.854 l -19.208,-23.523 v 23.523 h -2.199 v -28.487 z"
   id="path64" />
	<path
   style="fill:#ffffff"
   fill="#ffffff"
   d="m 348.84,401.269 c -2.849,2.849 -6.634,4.273 -10.378,4.273 -9.604,0 -14.608,-6.715 -14.65,-14.407 -0.081,-7.609 4.883,-14.731 14.65,-14.731 3.745,0 7.53,1.424 10.378,4.273 l -1.506,1.301 c -2.442,-2.442 -5.656,-3.622 -8.873,-3.622 -8.301,0 -12.574,5.861 -12.534,12.697 0.081,6.675 4.315,12.454 12.534,12.454 3.216,0 6.471,-1.222 8.914,-3.622 z"
   id="path66" />
	<path
   style="fill:#ffffff"
   fill="#ffffff"
   d="m 362.348,389.873 h 16.684 v 1.995 h -16.684 v 11.233 h 17.988 v 2.116 H 360.191 V 376.73 h 19.656 v 2.076 h -17.499 z"
   id="path68" />
	<path
   style="fill:#ffffff"
   fill="#ffffff"
   d="m 436.331,391.014 c -0.04,7.488 -4.802,14.692 -14.366,14.692 -9.562,0 -14.366,-7.244 -14.366,-14.773 0,-7.651 4.762,-14.65 14.366,-14.65 9.606,-0.001 14.408,7.038 14.366,14.731 z m -26.574,-0.042 c 0.042,6.431 4.11,12.699 12.208,12.699 8.139,0 12.25,-6.268 12.25,-12.699 0,-6.592 -4.069,-12.655 -12.25,-12.655 -8.179,0 -12.248,5.942 -12.208,12.655 z"
   id="path70" />
	<path
   style="fill:#ffffff"
   fill="#ffffff"
   d="m 449.962,390.281 h 16.4 v 2.076 h -16.4 v 12.9 h -2.197 V 376.73 h 19.168 v 2.197 h -16.97 v 11.354 z"
   id="path72" />
	<path
   style="fill:#ffffff"
   fill="#ffffff"
   d="m 503.516,378.724 h -10.295 v -1.955 h 22.789 v 1.955 h -10.295 v 26.493 h -2.199 z"
   id="path74" />
	<path
   style="fill:#ffffff"
   fill="#ffffff"
   d="m 528.543,389.873 h 16.684 v 1.995 h -16.684 v 11.233 h 17.988 v 2.116 H 526.386 V 376.73 h 19.656 v 2.076 h -17.499 z"
   id="path76" />
	<path
   style="fill:#ffffff"
   fill="#ffffff"
   d="m 580.267,405.217 -3.133,-6.999 h -17.012 l -3.093,6.999 h -2.36 l 12.779,-28.487 h 2.402 l 12.778,28.487 z m -3.99,-9.036 -7.651,-17.336 -7.651,17.336 z"
   id="path78" />
	<path
   style="fill:#ffffff"
   fill="#ffffff"
   d="m 616.931,379.904 -10.907,16.684 h -0.733 l -10.987,-16.684 v 25.313 h -2.199 V 376.73 c 1.059,0 1.548,0 2.605,0 l 10.907,16.605 10.786,-16.605 h 2.686 v 28.487 h -2.157 v -25.313 z"
   id="path80" />
</g>
</svg>
